<svg width="3443" height="556" viewBox="0 0 3443 556" fill="none" xmlns="http://www.w3.org/2000/svg">
<path d="M841.447 132.041C834.354 134.091 828.994 138.662 825.369 145.282C821.901 151.587 821.901 153.005 821.901 211.641V271.537H833.723H845.545L846.018 214.951C846.175 175.072 846.963 157.734 848.224 156.158C849.17 154.897 852.165 154.109 854.844 154.424C860.834 155.054 861.149 155.685 886.684 213.217C896.614 235.757 906.072 256.721 907.648 259.715C916.632 276.581 944.531 280.837 958.875 267.754C967.544 259.873 967.702 258.612 967.702 195.563C967.702 163.723 967.702 136.612 967.702 135.509C967.702 134.248 964.234 133.618 955.88 133.618H944.059V190.046C944.059 242.85 943.901 246.79 941.221 249.155C933.183 256.405 929.242 251.519 912.534 214.005C883.532 149.065 881.167 144.178 877.384 140.08C869.819 132.041 853.583 128.258 841.447 132.041Z" fill="white"/>
<path d="M1302.33 132.199C1292.25 135.036 1288.62 142.129 1263.09 207.7C1249.69 241.904 1238.81 270.591 1238.81 271.222C1238.81 271.852 1244.64 272.325 1251.74 272.01L1264.82 271.537L1286.1 216.684C1297.92 186.421 1308.48 160.413 1309.43 158.679C1311.48 155.527 1315.42 154.896 1318.88 157.103C1319.99 157.734 1330.23 183.111 1341.58 213.374C1352.77 243.638 1362.86 269.33 1363.65 270.276C1365.54 272.64 1387.92 273.113 1389.34 270.749C1389.81 269.961 1389.5 268.069 1388.71 266.493C1386.5 262.08 1367.27 211.64 1350.72 166.718C1341.11 140.553 1337.33 134.878 1327.24 132.041C1320.3 130.15 1309.11 130.15 1302.33 132.199Z" fill="white"/>
<path d="M528.251 185.948L528.724 238.437L533.453 247.894C538.654 258.139 547.481 266.178 557.569 269.331C561.037 270.434 577.429 271.537 598.551 271.853L633.7 272.641L633.228 260.188L632.755 247.894L599.654 247.106C565.608 246.318 563.086 245.845 557.096 239.225C554.101 235.915 553.944 232.762 553.155 185.003L552.367 134.406L540.073 133.933L527.778 133.46L528.251 185.948Z" fill="white"/>
<path d="M711.566 135.509C711.093 136.613 710.935 167.664 711.093 204.548L711.566 271.537L723.072 272.01L734.421 272.483V202.971V133.618H723.387C715.979 133.618 712.039 134.248 711.566 135.509Z" fill="white"/>
<path d="M1079.77 135.352C1063.22 138.662 1051.87 150.799 1050.14 167.034C1048.88 179.486 1051.87 187.84 1060.23 196.194C1066.85 202.814 1067.16 203.602 1064.48 205.021C1055.34 210.065 1049.67 221.413 1049.67 234.811C1049.67 249.943 1056.29 260.504 1069.68 267.124L1078.83 271.537L1121.23 272.01C1148.02 272.325 1163.94 272.01 1164.57 271.064C1165.04 270.119 1165.2 264.602 1164.73 258.612L1163.94 247.894L1124.54 247.106C1082.45 246.318 1079.14 245.687 1076.46 238.279C1074.41 233.078 1074.41 225.669 1076.46 221.729C1080.24 214.793 1085.13 214.005 1125.32 214.005C1146.13 214.005 1163.15 213.532 1163.15 212.744C1163.94 201.238 1163.63 193.041 1162.68 192.411C1162.05 192.096 1146.45 191.78 1128 191.78C1092.22 191.938 1084.18 190.992 1078.98 185.633C1073.94 180.589 1074.41 169.713 1080.09 164.039L1084.34 159.626L1124.22 158.837L1163.94 158.049V146.228V134.406L1125.32 134.248C1104.05 134.091 1083.55 134.564 1079.77 135.352Z" fill="white"/>
<path d="M1507.24 135.351C1481.39 140.395 1465.95 158.68 1462.16 188.785C1458.85 215.896 1464.53 240.328 1477.77 254.829C1489.9 268.385 1506.93 273.113 1538.77 272.01C1560.99 271.222 1569.03 268.542 1577.23 259.243C1589.99 244.741 1590.31 214.163 1578.02 200.922C1569.5 191.78 1564.3 190.362 1539.87 190.362H1517.8V200.607V210.853H1534.2C1543.02 210.853 1552.64 211.641 1555.48 212.586C1567.77 216.842 1568.4 239.697 1556.42 245.214C1553.9 246.318 1544.44 247.106 1531.52 247.106C1507.56 247.106 1500.62 244.899 1493.53 235.599C1481.71 220.152 1482.81 182.165 1495.58 167.664C1502.04 160.413 1505.82 159.625 1543.02 158.837L1578.49 158.049L1578.96 145.755L1579.43 133.618L1546.65 133.775C1528.68 133.933 1510.87 134.563 1507.24 135.351Z" fill="white"/>
<path d="M1691.66 135.824C1679.84 138.662 1671.8 144.651 1667.54 153.32C1659.82 169.398 1662.03 185.002 1673.69 196.351C1680.31 202.814 1680.63 203.444 1677.63 205.021C1668.49 210.064 1662.82 221.413 1662.82 234.811C1662.82 249.943 1669.44 260.504 1682.83 267.124L1691.98 271.537H1734.53H1777.09V259.715V247.894L1737.69 247.106C1716.09 246.633 1697.02 245.687 1695.44 244.899C1689.3 241.904 1685.99 228.664 1689.61 221.886C1693.08 215.424 1696.86 214.793 1737.69 214.005L1777.09 213.217V202.971V192.726L1738.47 191.938C1704.59 191.307 1699.23 190.835 1695.44 188.313C1686.93 182.796 1686.14 170.659 1693.71 163.408C1697.65 159.625 1698.12 159.625 1737.37 158.837L1777.09 158.049V146.227V134.406L1738.47 134.091C1711.68 133.933 1697.33 134.406 1691.66 135.824Z" fill="white"/>
<path d="M1920.06 145.755L1920.53 158.049L1960.09 158.837C1996.19 159.625 2000.13 159.941 2003.12 162.62C2010.53 169.398 2010.22 183.111 2002.33 190.519C1998.39 194.302 1997.61 194.302 1963.56 195.09L1928.88 195.878L1924.31 201.08L1919.74 206.124V239.382V272.483L1931.25 272.01L1942.6 271.537L1943.38 245.53L1944.17 219.522L1972.54 218.734C1997.76 217.946 2001.86 217.473 2009.27 214.163C2013.84 212.114 2019.99 207.7 2022.82 204.232C2037.8 186.736 2035.75 155.37 2018.57 142.917C2007.22 134.721 2000.28 133.618 1958.04 133.618H1919.58L1920.06 145.755Z" fill="white"/>
<path d="M2112.35 145.755L2112.83 158.049L2154.91 158.837L2197.15 159.625L2201.41 164.039C2205.04 167.664 2205.82 169.713 2205.82 176.176C2205.82 182.954 2205.04 184.687 2200.62 189.101L2195.58 194.302L2158.7 195.09C2109.36 196.194 2111.72 193.83 2112.35 240.801L2112.83 271.537H2123.86H2134.89L2135.68 245.53L2136.47 219.522L2155.86 219.049L2175.09 218.576L2178.71 224.408C2180.6 227.718 2187.54 239.54 2194.16 250.889L2206.14 271.537L2218.91 272.01C2226.79 272.325 2231.83 271.853 2231.83 270.907C2231.83 269.488 2214.65 238.752 2204.88 222.517L2201.88 217.473L2208.66 213.375C2223.95 204.548 2231.2 190.204 2229.94 171.605C2228.68 155.054 2222.69 145.597 2208.19 138.031C2201.25 134.564 2199.68 134.406 2156.49 133.933L2111.88 133.46L2112.35 145.755Z" fill="white"/>
<path d="M2353.2 135.194C2336.81 138.662 2322.78 149.222 2315.53 163.251C2311.59 170.974 2307.49 190.835 2307.49 202.499C2307.49 241.116 2323.88 265.075 2353.99 270.592C2365.81 272.798 2392.61 272.798 2404.43 270.592C2430.59 265.705 2445.88 247.894 2449.67 217.473C2453.29 189.416 2446.99 164.197 2432.96 150.011C2420.51 137.716 2411.52 134.879 2383.15 134.248C2370.54 133.933 2357.14 134.406 2353.2 135.194ZM2408.53 162.463C2422.24 169.713 2428.39 188.628 2425.39 214.163C2423.34 231.344 2418.14 239.855 2406.32 244.741C2397.49 248.367 2359.35 248.052 2350.84 244.111C2336.97 237.806 2332.55 227.561 2332.4 202.656C2332.4 187.997 2332.87 184.687 2336.34 177.279C2343.27 161.99 2350.05 158.995 2379.37 158.995C2399.7 158.837 2402.22 159.153 2408.53 162.463Z" fill="white"/>
<path d="M2522.49 135.667C2522.01 136.928 2521.86 142.444 2522.17 147.961L2522.64 158.049L2539.98 158.364C2549.6 158.522 2558.27 158.68 2559.21 158.837C2560.79 158.837 2561.26 171.762 2561.58 215.108L2562.05 271.537H2573.87H2585.69L2586.48 215.108L2587.27 158.522L2606.18 158.364L2625.1 158.049V146.227V134.406L2574.19 133.933C2532.26 133.618 2523.28 133.933 2522.49 135.667Z" fill="white"/>
<path d="M2744.73 135.194C2714.79 141.499 2699.5 164.354 2699.5 202.971C2699.34 237.018 2711 258.612 2734.49 267.912C2742.37 271.064 2746.15 271.379 2769.32 271.537C2790.44 271.537 2796.91 271.064 2804 268.7C2820.39 263.183 2831.43 251.992 2838.05 234.496C2841.51 225.354 2842.15 185.002 2838.99 175.388C2832.69 156.63 2820.39 142.76 2805.42 137.716C2795.8 134.406 2755.93 132.83 2744.73 135.194ZM2798.48 161.832C2812.2 167.979 2817.24 179.17 2817.24 202.971C2817.24 220.31 2815.03 229.137 2809.2 236.23C2801.64 245.214 2795.02 247.106 2770.11 247.106C2743.16 247.106 2736.85 244.899 2729.29 232.447C2725.19 225.984 2724.56 223.147 2723.93 209.592C2722.67 183.111 2727.87 168.767 2741.27 162.147C2747.26 159.31 2750.72 158.837 2770.11 158.837C2788.08 158.837 2793.28 159.468 2798.48 161.832Z" fill="white"/>
<path d="M2965.25 135.194C2953.9 137.558 2943.02 143.232 2936.56 150.168C2924.11 163.566 2919.85 177.279 2919.85 202.971C2919.85 228.191 2924.11 242.062 2935.93 255.144C2943.02 263.025 2953.27 268.384 2965.56 270.591C2977.38 272.798 3033.66 272.956 3034.44 270.749C3034.76 269.961 3034.6 264.444 3034.13 258.612L3033.34 247.894L2999.45 247.105C2968.87 246.317 2965.09 246.002 2960.05 243.007C2948.7 236.387 2943.81 224.093 2943.81 202.971C2943.81 181.85 2948.7 169.555 2960.05 162.935C2965.09 159.94 2968.87 159.625 2999.45 158.837L3033.34 158.049L3034.13 147.331C3034.6 141.499 3034.76 135.982 3034.44 135.194C3033.81 133.302 2975.02 133.302 2965.25 135.194Z" fill="white"/>
<path d="M3161.8 134.564C3132.17 140.238 3116.41 159.783 3113.57 194.775C3110.26 236.072 3127.44 264.76 3159.44 270.592C3171.26 272.798 3198.06 272.798 3209.88 270.592C3233.84 266.178 3248.65 251.046 3254.01 225.669C3260.47 194.933 3253.54 163.566 3236.67 147.961C3225.64 137.716 3215.24 134.879 3188.6 134.248C3175.99 134.091 3164.01 134.248 3161.8 134.564ZM3213.82 162.305C3226.43 168.768 3231.63 180.589 3231.63 202.972C3231.63 225.827 3225.95 238.279 3213.19 244.111C3207.83 246.475 3202.78 247.106 3184.66 247.106C3164.8 247.106 3161.8 246.791 3155.5 243.481C3142.57 237.018 3138.16 226.615 3138.16 202.656C3138.16 191.15 3138.95 185.16 3141.31 178.855C3147.62 162.147 3154.55 158.995 3184.66 158.837C3204.68 158.837 3207.51 159.153 3213.82 162.305Z" fill="white"/>
<path d="M3337.39 135.825C3336.92 136.928 3336.76 160.886 3337.08 188.943C3337.55 233.393 3338.02 240.801 3340.39 246.002C3344.64 255.145 3353.31 263.656 3362.46 267.754C3370.18 271.222 3373.02 271.537 3406.59 272.01L3442.53 272.641L3442.05 260.188L3441.58 247.894L3408.48 247.106C3358.67 245.845 3361.35 249.47 3360.88 184.057C3360.56 157.576 3360.41 135.509 3360.41 134.721C3360.41 134.091 3355.36 133.618 3349.37 133.618C3341.33 133.618 3338.02 134.248 3337.39 135.825Z" fill="white"/>
<path d="M1303.91 210.853C1293.82 217 1290.2 227.561 1294.77 237.806C1301.7 252.938 1321.72 254.514 1330.23 240.328C1336.38 230.24 1332.6 216.054 1322.19 210.537C1315.42 206.912 1310.21 206.912 1303.91 210.853Z" fill="white"/>
<path d="M293.751 0.745519C293.629 0.990167 292.558 2.21341 291.396 3.49781C290.234 4.78221 288.858 6.40301 288.338 7.10637C287.818 7.80974 287.023 8.88007 286.564 9.46111C284.944 11.6629 281.304 17.5957 279.745 20.6232C278.858 22.3051 277.849 24.2623 277.482 24.9351C277.145 25.6079 276.84 26.2501 276.84 26.3418C276.84 26.4642 276.35 27.5957 275.769 28.8495C275.188 30.1033 274.699 31.2654 274.699 31.4183C274.699 31.6018 274.271 32.7333 273.782 33.9871C273.262 35.2409 272.711 36.7394 272.589 37.3204C272.436 37.9015 272.038 39.2165 271.702 40.2256C270.846 42.7333 269.041 49.4917 268.43 52.4581C268.155 53.8036 267.696 56.1278 267.39 57.6568C267.054 59.1553 266.656 61.5712 266.473 63.0085C266.289 64.4458 265.953 66.984 265.708 68.666C264.179 79.0635 264.087 105.608 265.494 115.302C265.678 116.403 266.014 118.788 266.259 120.654C266.534 122.489 266.962 125.333 267.207 126.923C268.155 132.764 269.011 141.265 269.867 153.223C270.387 160.409 270.295 174.415 269.684 182.122C268.552 196.189 268.644 195.486 267.36 201.846C267.054 203.437 266.656 205.516 266.503 206.434C266.35 207.351 266.014 208.88 265.769 209.797C265.494 210.715 265.066 212.519 264.76 213.773C264.485 215.027 264.149 216.189 264.026 216.372C263.904 216.525 263.537 217.504 263.262 218.513C262.589 220.745 260.876 225.302 259.898 227.382C255.555 236.617 252.895 240.929 248.032 246.495C246.106 248.727 238.95 255.883 236.167 258.36C233.659 260.593 228.46 264.782 226.075 266.464C225.647 266.77 224.821 267.351 224.24 267.748C223.659 268.177 222.956 268.666 222.711 268.819C222.467 269.002 221.58 269.614 220.723 270.195C219.898 270.776 218.705 271.51 218.124 271.816C217.543 272.091 216.503 272.703 215.83 273.131C215.158 273.559 213.292 274.568 211.702 275.363C210.112 276.158 208.675 276.923 208.491 277.045C208.338 277.167 207.574 277.534 206.809 277.81C206.045 278.115 204.76 278.666 203.904 279.063C203.078 279.43 202.1 279.828 201.794 279.95C201.488 280.073 201.305 280.226 201.396 280.348C201.763 280.684 207.604 279.767 210.938 278.849C212.803 278.33 214.852 277.779 215.525 277.657C216.656 277.443 218.002 276.984 224.546 274.446C227.023 273.467 234.118 270.011 237.115 268.268C240.693 266.189 242.834 264.843 243.201 264.415C243.415 264.14 243.69 263.926 243.843 263.926C244.21 263.926 249.133 260.44 250.846 258.972C251.61 258.33 252.619 257.473 253.109 257.106C254.21 256.25 262.742 247.81 263.506 246.8C267.635 241.296 269.653 238.391 271.06 235.944C272.986 232.519 273.843 230.96 274.301 229.981C274.546 229.4 275.249 227.932 275.8 226.77C276.381 225.577 276.84 224.507 276.84 224.385C276.84 224.232 277.268 223.223 277.757 222.122C278.277 221.051 278.674 220.012 278.674 219.859C278.674 219.675 279.011 218.697 279.408 217.657C280.295 215.363 281.824 210.103 282.803 205.975C283.2 204.293 283.659 202.366 283.843 201.693C284.026 201.021 284.393 199.094 284.668 197.412C284.944 195.73 285.28 193.742 285.402 192.978C288.002 177.993 288.002 150.654 285.402 134.109C285.249 133.253 284.944 131.051 284.699 129.216C284.424 127.351 283.873 124.201 283.415 122.183C282.986 120.195 282.528 117.565 282.375 116.372C282.222 115.21 281.824 112.642 281.488 110.715C281.152 108.788 280.785 106.036 280.662 104.599C280.571 103.161 280.204 99.7363 279.898 96.9535C279.072 89.9198 278.674 81.6324 278.674 72.3357C278.674 64.507 279.286 53.5896 279.898 50.0116C280.051 49.0024 280.326 46.7394 280.509 44.9657C281.09 39.1859 284.668 22.8556 285.708 21.2654C285.83 21.0819 286.167 20.1339 286.442 19.1247C286.748 18.1155 287.298 16.4642 287.726 15.455C288.124 14.4458 288.46 13.4978 288.46 13.3755C288.46 12.825 292.925 3.65072 293.904 2.24399C294.607 1.17365 294.791 0.317385 294.271 0.317385C294.118 0.317385 293.873 0.500871 293.751 0.745519Z" fill="white"/>
<path d="M399.164 108.971C398.735 109.216 398.124 109.552 397.787 109.736C396.778 110.317 391.549 112.549 391.212 112.549C391.06 112.549 390.203 112.885 389.316 113.283C387.482 114.109 382.283 115.791 379.653 116.372C378.705 116.586 376.472 117.106 374.699 117.534C364.607 119.95 354.271 121.081 339.775 121.326C328.216 121.54 314.026 120.653 301.457 118.971C295.31 118.145 290.968 117.503 289.225 117.136C288.399 116.983 287.084 116.769 286.35 116.647L285.035 116.433L285.249 117.473C285.372 118.054 285.8 119.919 286.197 121.601C286.595 123.314 286.931 125.24 286.962 125.882C286.962 126.555 287.268 128.726 287.665 130.714C288.43 134.873 288.216 134.659 292.069 135.179C295.677 135.668 312.252 136.677 316.901 136.708C321.641 136.708 335.463 135.943 339.072 135.454C340.417 135.271 343.292 134.812 345.463 134.384C347.604 133.986 349.714 133.65 350.142 133.65C350.54 133.65 352.069 133.314 353.537 132.916C355.005 132.518 356.748 132.09 357.42 131.968C360.02 131.54 369.255 128.451 373.108 126.739C373.995 126.341 374.852 126.005 375.005 126.005C375.249 126.005 378.154 124.537 382.497 122.182C384.148 121.295 386.595 119.827 389.164 118.206C391.029 117.044 395.953 113.191 397.634 111.632C398.552 110.775 399.622 109.858 399.989 109.583C400.387 109.338 400.601 109.002 400.509 108.849C400.295 108.482 400.081 108.512 399.164 108.971Z" fill="white"/>
<path d="M197.176 111.235C190.754 111.693 183.048 113.253 176.809 115.332C175.372 115.822 174.026 116.219 173.843 116.219C173.659 116.219 172.62 116.617 171.549 117.137C170.448 117.626 169.47 118.054 169.348 118.054C169.225 118.054 168.155 118.543 167.023 119.124C165.861 119.706 164.791 120.195 164.638 120.195C164.363 120.195 161.152 121.907 157.727 123.834C155.494 125.118 149.806 128.788 147.941 130.134C146.932 130.868 145.77 131.724 145.341 132.03C144.21 132.825 139.256 136.831 137.849 138.085C135.678 140.042 131.274 144.476 131.274 144.69C131.274 144.813 130.907 145.363 130.449 145.883C129.959 146.433 129.225 147.32 128.797 147.84C128.002 148.757 125.066 153.1 123.568 155.516C121.58 158.696 118.155 165.394 117.176 167.901C116.473 169.797 114.944 173.803 114.21 175.852C113.048 179.002 111.641 183.65 111.366 185.18C111.213 186.005 110.877 187.473 110.601 188.391C110.326 189.308 109.929 191.112 109.684 192.366C109.47 193.62 109.072 195.975 108.767 197.565C108.491 199.155 108.155 200.868 108.002 201.357C107.849 201.846 107.727 203.1 107.727 204.109C107.727 205.149 107.604 207.076 107.421 208.421C106.932 212.427 106.198 224.598 106.198 228.88C106.198 233.498 106.626 240.99 107.268 248.482C107.513 251.326 107.757 254.231 107.788 254.904C107.88 256.097 107.88 256.127 109.409 256.342C110.265 256.494 112.039 256.8 113.384 257.076C117.513 257.932 127.788 259.277 128.033 259.002C128.124 258.91 128.002 256.861 127.757 254.446C126.504 241.724 126.137 221.173 126.932 209.95C127.299 204.69 128.186 197.32 128.828 194.048C129.011 193.192 129.286 191.571 129.439 190.378C129.623 189.216 130.02 187.259 130.357 186.036C130.693 184.813 130.968 183.528 130.968 183.192C130.968 182.611 132.283 178.085 132.803 176.923C132.956 176.586 133.14 175.883 133.262 175.394C133.629 173.62 136.259 167.198 138.675 162.244C139.715 160.072 140.418 158.88 142.742 155.088C145.219 151.112 148.124 147.657 153.904 141.907C157.88 137.932 159.867 136.097 163.384 133.131C164.393 132.244 169.47 128.36 171.244 127.076C176.167 123.528 186.351 117.84 191.06 116.005C191.733 115.73 192.987 115.21 193.874 114.813C194.73 114.415 195.647 114.079 195.922 114.079C196.167 114.079 197.023 113.773 197.849 113.436C198.644 113.069 200.265 112.55 201.427 112.274C204.516 111.54 204.424 111.021 201.244 111.082C199.867 111.112 198.033 111.173 197.176 111.235Z" fill="white"/>
<path d="M239.837 114.415C237.727 114.537 235.127 114.782 234.026 114.935C232.926 115.118 230.448 115.485 228.522 115.73C224.73 116.28 221.947 116.739 220.265 117.137C219.684 117.29 217.696 117.748 215.831 118.146C213.996 118.574 211.702 119.155 210.785 119.43C209.867 119.706 208.767 120.011 208.338 120.103C206.962 120.378 200.907 122.335 198.4 123.314C192.161 125.699 185.28 129.033 181.733 131.326C181.152 131.724 180.357 132.121 180.02 132.244C179.653 132.366 179.134 132.702 178.828 133.039C178.522 133.375 178.155 133.65 177.971 133.65C176.687 133.65 161.611 146.342 162.192 146.923C162.314 147.045 163.874 146.372 165.708 145.455C169.317 143.62 173.017 141.907 173.354 141.907C173.445 141.907 174.73 141.449 176.198 140.868C177.635 140.317 179.592 139.614 180.51 139.308C181.427 139.002 182.345 138.666 182.497 138.543C182.681 138.421 183.568 138.146 184.485 137.932C185.403 137.718 187.146 137.228 188.308 136.861C189.501 136.464 190.999 136.036 191.672 135.944C192.345 135.822 194.546 135.332 196.565 134.813C198.583 134.323 201.182 133.803 202.375 133.65C203.537 133.498 206.045 133.131 207.88 132.764C209.745 132.427 215.433 131.785 220.571 131.326C229.164 130.531 230.938 130.47 243.048 130.501C251.947 130.531 257.482 130.684 260.173 130.99C262.375 131.204 264.332 131.357 264.577 131.265C264.852 131.143 264.944 130.776 264.822 129.858C264.485 127.504 264.026 124.935 263.507 122.641C263.231 121.387 262.926 118.972 262.803 117.29L262.62 114.232L253.14 114.201C247.941 114.17 241.947 114.262 239.837 114.415Z" fill="white"/>
<path d="M239.072 247.106C237.971 247.84 232.65 250.47 232.253 250.47C232.1 250.47 231.549 250.684 231.03 250.959C229.439 251.754 224.179 253.865 222.712 254.293C221.947 254.507 220.326 255.057 219.072 255.516C217.819 255.944 216.259 256.433 215.556 256.586C214.852 256.709 213.354 257.106 212.161 257.443C208.461 258.513 200.846 260.256 199.898 260.256C199.409 260.256 197.36 260.592 195.341 260.99C190.968 261.846 187.88 262.213 179.745 262.855C176.381 263.131 172.192 263.467 170.418 263.62C168.644 263.803 163.415 263.926 158.797 263.926C150.724 263.926 148.705 263.834 136.779 262.855C133.843 262.611 130.265 262.336 128.828 262.244C126.534 262.091 123.017 261.449 119.623 260.531C119.011 260.378 118.033 260.256 117.452 260.256C116.442 260.256 112.161 259.706 108.186 259.033C103.231 258.207 90.9073 257.779 79.5923 257.962C70.5403 258.146 67.9715 258.36 60.6321 259.522C58.0327 259.92 55.5251 260.256 55.0969 260.256C54.6688 260.256 52.3752 260.745 50.0511 261.326C47.7269 261.907 45.5251 262.397 45.2193 262.397C44.8829 262.397 43.5067 262.733 42.1612 263.161C40.785 263.559 38.7972 264.17 37.6963 264.507C30.6933 266.678 23.2009 269.858 16.9012 273.345C15.4945 274.109 8.91958 278.391 8.06331 279.094C5.4945 281.143 1.58013 284.537 0.846186 285.332C-0.0712442 286.311 -0.0712442 286.311 0.693281 286.128C1.12142 286.005 2.4364 285.455 3.59848 284.874C6.96239 283.222 9.89817 281.969 10.3569 281.969C10.571 281.969 11.6719 281.54 12.8034 281.021C13.9349 280.531 15.2804 280.011 15.8003 279.95C16.3202 279.858 17.6352 279.461 18.7361 279.063C19.837 278.666 21.4884 278.176 22.4058 277.993C23.3232 277.779 25.4027 277.29 26.993 276.892C28.5832 276.495 31.7636 275.883 34.0266 275.547C36.2896 275.18 39.4089 274.69 40.9073 274.476C51.0296 272.886 79.3783 272.886 92.5893 274.446C100.968 275.455 102.222 275.608 105.28 276.005C107.054 276.25 109.806 276.709 111.397 277.045C112.987 277.412 114.699 277.687 115.189 277.687C115.647 277.687 117.452 278.024 119.164 278.421C120.846 278.849 123.293 279.308 124.546 279.491C132.1 280.531 159.501 280.562 166.29 279.522C167.299 279.369 170.479 278.88 173.323 278.452C176.198 278.024 179.776 277.381 181.274 277.045C182.803 276.709 185.005 276.219 186.167 275.975C191.03 274.935 200.082 272.091 205.586 269.858C207.513 269.094 209.531 268.299 210.02 268.085C210.54 267.901 211.427 267.473 212.008 267.137C212.589 266.8 213.69 266.25 214.455 265.913C215.219 265.608 216.32 265.027 216.901 264.629C217.482 264.232 218.063 263.926 218.216 263.926C218.338 263.926 219.592 263.222 220.968 262.397C222.345 261.54 223.751 260.684 224.088 260.47C224.76 260.073 228.797 257.228 229.286 256.831C229.439 256.678 230.418 255.944 231.427 255.18C233.996 253.253 240.387 247.351 240.418 246.861C240.449 246.342 240.143 246.403 239.072 247.106Z" fill="white"/>
<path d="M112.161 280.745C112.069 280.898 112.191 282.182 112.436 283.559C113.201 287.932 113.537 290.562 113.843 294.812C114.026 297.075 114.363 301.357 114.607 304.292C115.219 311.54 115.219 330.286 114.607 336.708C113.782 345.638 113.231 350.317 112.834 352.458C112.589 353.62 112.161 355.974 111.886 357.656C111.304 360.99 109.684 367.289 108.491 370.99C108.063 372.274 107.727 373.558 107.727 373.834C107.727 374.078 107.39 375.026 106.993 375.913C106.564 376.8 106.014 378.207 105.739 379.063C105.464 379.889 104.913 381.204 104.485 381.938C104.087 382.672 103.751 383.406 103.751 383.558C103.751 384.629 98.4605 394.078 95.7082 397.901C94.2097 400.042 94.0568 400.317 94.6072 400.317C95.066 400.317 100.448 395.607 103.017 392.916C105.464 390.409 109.256 385.821 109.256 385.393C109.256 385.24 109.47 384.904 109.745 384.69C110.968 383.681 115.433 376.311 117.879 371.265C120.601 365.607 121.09 364.507 121.519 363.161C121.702 362.488 122.191 361.234 122.558 360.409C123.659 357.962 126.962 347.075 127.298 344.812C127.512 343.497 128.063 341.051 129.133 336.984C129.317 336.372 129.439 335.455 129.439 334.935C129.439 334.415 129.775 331.999 130.204 329.552C130.632 327.106 130.968 324.384 130.968 323.497C130.968 322.61 131.182 320.072 131.427 317.901C132.1 312.091 132.344 298.085 131.916 289.919C131.702 286.127 131.396 282.886 131.243 282.702C131.09 282.488 129.103 282.274 126.32 282.152C121.549 281.938 118.644 281.632 115.005 280.867C112.558 280.348 112.405 280.348 112.161 280.745Z" fill="white"/>
<path d="M2211.08 516.734C2203.41 516.734 2196.65 514.797 2190.77 510.923C2184.9 507.009 2180.31 501.498 2177 494.389C2173.68 487.24 2172.02 478.793 2172.02 469.048C2172.02 459.383 2173.68 450.996 2177 443.887C2180.31 436.778 2184.92 431.287 2190.83 427.413C2196.75 423.539 2203.57 421.602 2211.32 421.602C2217.31 421.602 2222.05 422.6 2225.52 424.597C2229.03 426.554 2231.71 428.791 2233.55 431.307C2235.42 433.783 2236.88 435.82 2237.92 437.417H2239.12V392.128H2253.26V514.817H2239.6V500.679H2237.92C2236.88 502.356 2235.4 504.473 2233.49 507.029C2231.57 509.545 2228.84 511.802 2225.28 513.798C2221.73 515.755 2216.99 516.734 2211.08 516.734ZM2213 504.034C2218.67 504.034 2223.46 502.556 2227.38 499.601C2231.29 496.605 2234.27 492.472 2236.3 487.2C2238.34 481.888 2239.36 475.758 2239.36 468.808C2239.36 461.939 2238.36 455.928 2236.36 450.777C2234.37 445.585 2231.41 441.551 2227.5 438.675C2223.58 435.76 2218.75 434.302 2213 434.302C2207.01 434.302 2202.02 435.84 2198.02 438.915C2194.07 441.95 2191.09 446.084 2189.1 451.316C2187.14 456.508 2186.16 462.339 2186.16 468.808C2186.16 475.358 2187.16 481.309 2189.16 486.661C2191.19 491.972 2194.19 496.206 2198.14 499.361C2202.14 502.476 2207.09 504.034 2213 504.034ZM2325.24 516.734C2316.94 516.734 2309.65 514.757 2303.38 510.803C2297.15 506.849 2292.27 501.318 2288.76 494.209C2285.29 487.1 2283.55 478.793 2283.55 469.288C2283.55 459.703 2285.29 451.336 2288.76 444.187C2292.27 437.038 2297.15 431.487 2303.38 427.533C2309.65 423.579 2316.94 421.602 2325.24 421.602C2333.55 421.602 2340.82 423.579 2347.05 427.533C2353.32 431.487 2358.19 437.038 2361.67 444.187C2365.18 451.336 2366.94 459.703 2366.94 469.288C2366.94 478.793 2365.18 487.1 2361.67 494.209C2358.19 501.318 2353.32 506.849 2347.05 510.803C2340.82 514.757 2333.55 516.734 2325.24 516.734ZM2325.24 504.034C2331.55 504.034 2336.75 502.416 2340.82 499.181C2344.89 495.946 2347.91 491.693 2349.87 486.421C2351.82 481.149 2352.8 475.438 2352.8 469.288C2352.8 463.137 2351.82 457.406 2349.87 452.094C2347.91 446.783 2344.89 442.489 2340.82 439.214C2336.75 435.94 2331.55 434.302 2325.24 434.302C2318.93 434.302 2313.74 435.94 2309.67 439.214C2305.59 442.489 2302.58 446.783 2300.62 452.094C2298.66 457.406 2297.69 463.137 2297.69 469.288C2297.69 475.438 2298.66 481.149 2300.62 486.421C2302.58 491.693 2305.59 495.946 2309.67 499.181C2313.74 502.416 2318.93 504.034 2325.24 504.034ZM2432.65 516.734C2424.02 516.734 2416.59 514.697 2410.36 510.623C2404.13 506.55 2399.34 500.938 2395.99 493.79C2392.63 486.641 2390.95 478.473 2390.95 469.288C2390.95 459.942 2392.67 451.695 2396.11 444.546C2399.58 437.357 2404.41 431.746 2410.6 427.712C2416.83 423.639 2424.1 421.602 2432.41 421.602C2438.88 421.602 2444.71 422.8 2449.9 425.196C2455.1 427.593 2459.35 430.947 2462.66 435.261C2465.98 439.574 2468.03 444.606 2468.83 450.357H2454.7C2453.62 446.164 2451.22 442.449 2447.51 439.214C2443.83 435.94 2438.88 434.302 2432.65 434.302C2427.14 434.302 2422.31 435.74 2418.15 438.615C2414.04 441.451 2410.82 445.465 2408.51 450.657C2406.23 455.809 2405.09 461.859 2405.09 468.808C2405.09 475.917 2406.21 482.108 2408.45 487.38C2410.72 492.651 2413.92 496.745 2418.03 499.66C2422.19 502.576 2427.06 504.034 2432.65 504.034C2436.32 504.034 2439.66 503.395 2442.65 502.117C2445.65 500.839 2448.19 499.001 2450.26 496.605C2452.34 494.209 2453.82 491.333 2454.7 487.979H2468.83C2468.03 493.41 2466.06 498.303 2462.9 502.656C2459.79 506.969 2455.65 510.404 2450.5 512.96C2445.39 515.476 2439.44 516.734 2432.65 516.734ZM2554.24 477.195V422.8H2568.38V514.817H2554.24V499.241H2553.28C2551.12 503.914 2547.77 507.888 2543.22 511.163C2538.66 514.398 2532.91 516.015 2525.96 516.015C2520.21 516.015 2515.1 514.757 2510.63 512.241C2506.15 509.685 2502.64 505.851 2500.08 500.739C2497.53 495.587 2496.25 489.097 2496.25 481.269V422.8H2510.39V480.311C2510.39 487.02 2512.26 492.372 2516.02 496.366C2519.81 500.359 2524.65 502.356 2530.52 502.356C2534.03 502.356 2537.61 501.458 2541.24 499.66C2544.91 497.863 2547.99 495.108 2550.47 491.393C2552.98 487.679 2554.24 482.946 2554.24 477.195ZM2601.02 514.817V422.8H2614.68V437.178H2615.88C2617.79 432.265 2620.89 428.451 2625.16 425.735C2629.44 422.98 2634.57 421.602 2640.56 421.602C2646.63 421.602 2651.68 422.98 2655.71 425.735C2659.79 428.451 2662.96 432.265 2665.24 437.178H2666.2C2668.55 432.425 2672.09 428.651 2676.8 425.855C2681.51 423.02 2687.17 421.602 2693.76 421.602C2701.98 421.602 2708.71 424.178 2713.94 429.33C2719.18 434.442 2721.79 442.41 2721.79 453.233V514.817H2707.65V453.233C2707.65 446.443 2705.8 441.591 2702.08 438.675C2698.37 435.76 2694 434.302 2688.96 434.302C2682.49 434.302 2677.48 436.259 2673.93 440.173C2670.37 444.047 2668.59 448.959 2668.59 454.91V514.817H2654.22V451.795C2654.22 446.563 2652.52 442.35 2649.13 439.155C2645.73 435.92 2641.36 434.302 2636.01 434.302C2632.33 434.302 2628.9 435.281 2625.7 437.238C2622.55 439.195 2619.99 441.91 2618.03 445.385C2616.12 448.82 2615.16 452.793 2615.16 457.306V514.817H2601.02ZM2792.97 516.734C2784.1 516.734 2776.46 514.777 2770.03 510.863C2763.64 506.909 2758.7 501.398 2755.23 494.329C2751.79 487.22 2750.08 478.953 2750.08 469.527C2750.08 460.102 2751.79 451.795 2755.23 444.606C2758.7 437.377 2763.54 431.746 2769.73 427.712C2775.96 423.639 2783.22 421.602 2791.53 421.602C2796.32 421.602 2801.06 422.401 2805.73 423.998C2810.4 425.596 2814.66 428.192 2818.49 431.786C2822.32 435.341 2825.38 440.053 2827.66 445.924C2829.93 451.795 2831.07 459.024 2831.07 467.61V473.601H2760.14V461.38H2816.69C2816.69 456.188 2815.65 451.555 2813.58 447.482C2811.54 443.408 2808.63 440.193 2804.83 437.837C2801.08 435.48 2796.64 434.302 2791.53 434.302C2785.9 434.302 2781.03 435.7 2776.91 438.496C2772.84 441.251 2769.71 444.846 2767.51 449.279C2765.31 453.712 2764.21 458.465 2764.21 463.537V471.684C2764.21 478.633 2765.41 484.524 2767.81 489.356C2770.24 494.149 2773.62 497.803 2777.93 500.319C2782.25 502.796 2787.26 504.034 2792.97 504.034C2796.68 504.034 2800.04 503.514 2803.03 502.476C2806.07 501.398 2808.69 499.8 2810.88 497.684C2813.08 495.527 2814.78 492.851 2815.97 489.656L2829.63 493.49C2828.19 498.123 2825.78 502.197 2822.38 505.711C2818.99 509.186 2814.8 511.901 2809.8 513.858C2804.81 515.775 2799.2 516.734 2792.97 516.734ZM2873.46 459.463V514.817H2859.32V422.8H2872.98V437.178H2874.18C2876.34 432.505 2879.61 428.751 2884.01 425.915C2888.4 423.04 2894.07 421.602 2901.02 421.602C2907.25 421.602 2912.7 422.88 2917.37 425.436C2922.05 427.952 2925.68 431.786 2928.28 436.938C2930.87 442.05 2932.17 448.52 2932.17 456.348V514.817H2918.03V457.306C2918.03 450.078 2916.16 444.446 2912.4 440.413C2908.65 436.339 2903.5 434.302 2896.95 434.302C2892.43 434.302 2888.4 435.281 2884.85 437.238C2881.33 439.195 2878.55 442.05 2876.52 445.804C2874.48 449.558 2873.46 454.111 2873.46 459.463ZM3004.77 422.8V434.781H2957.09V422.8H3004.77ZM2970.98 400.754H2985.12V488.458C2985.12 492.452 2985.7 495.447 2986.86 497.444C2988.06 499.401 2989.58 500.719 2991.41 501.398C2993.29 502.037 2995.27 502.356 2997.34 502.356C2998.9 502.356 3000.18 502.276 3001.18 502.117C3002.18 501.917 3002.97 501.757 3003.57 501.637L3006.45 514.338C3005.49 514.697 3004.15 515.057 3002.44 515.416C3000.72 515.815 2998.54 516.015 2995.91 516.015C2991.91 516.015 2988 515.156 2984.16 513.439C2980.37 511.722 2977.21 509.106 2974.7 505.591C2972.22 502.077 2970.98 497.644 2970.98 492.292V400.754ZM3059.86 516.974C3054.03 516.974 3048.74 515.875 3043.99 513.679C3039.24 511.442 3035.46 508.227 3032.67 504.034C3029.87 499.8 3028.47 494.688 3028.47 488.698C3028.47 483.426 3029.51 479.152 3031.59 475.877C3033.67 472.563 3036.44 469.967 3039.92 468.09C3043.39 466.212 3047.22 464.815 3051.42 463.896C3055.65 462.938 3059.9 462.179 3064.18 461.62C3069.77 460.901 3074.3 460.362 3077.78 460.002C3081.29 459.603 3083.85 458.944 3085.44 458.025C3087.08 457.107 3087.9 455.509 3087.9 453.233V452.753C3087.9 446.843 3086.28 442.25 3083.05 438.975C3079.85 435.7 3075 434.063 3068.49 434.063C3061.74 434.063 3056.45 435.54 3052.62 438.496C3048.78 441.451 3046.09 444.606 3044.53 447.961L3031.11 443.168C3033.51 437.577 3036.7 433.224 3040.69 430.109C3044.73 426.954 3049.12 424.757 3053.87 423.519C3058.67 422.241 3063.38 421.602 3068.01 421.602C3070.97 421.602 3074.36 421.961 3078.2 422.68C3082.07 423.359 3085.8 424.777 3089.4 426.934C3093.03 429.09 3096.05 432.345 3098.44 436.698C3100.84 441.052 3102.04 446.883 3102.04 454.191V514.817H3087.9V502.356H3087.18C3086.22 504.353 3084.63 506.49 3082.39 508.766C3080.15 511.043 3077.18 512.98 3073.46 514.577C3069.75 516.175 3065.22 516.974 3059.86 516.974ZM3062.02 504.273C3067.61 504.273 3072.33 503.175 3076.16 500.978C3080.03 498.782 3082.95 495.946 3084.91 492.472C3086.9 488.997 3087.9 485.343 3087.9 481.509V468.569C3087.3 469.288 3085.98 469.947 3083.95 470.546C3081.95 471.105 3079.63 471.604 3077 472.043C3074.4 472.443 3071.87 472.802 3069.39 473.122C3066.95 473.401 3064.98 473.641 3063.46 473.841C3059.78 474.32 3056.35 475.099 3053.16 476.177C3050 477.215 3047.44 478.793 3045.49 480.91C3043.57 482.986 3042.61 485.822 3042.61 489.416C3042.61 494.329 3044.43 498.043 3048.06 500.559C3051.74 503.035 3056.39 504.273 3062.02 504.273ZM3174.61 422.8V434.781H3126.92V422.8H3174.61ZM3140.82 400.754H3154.96V488.458C3154.96 492.452 3155.54 495.447 3156.7 497.444C3157.9 499.401 3159.41 500.719 3161.25 501.398C3163.13 502.037 3165.1 502.356 3167.18 502.356C3168.74 502.356 3170.02 502.276 3171.02 502.117C3172.01 501.917 3172.81 501.757 3173.41 501.637L3176.29 514.338C3175.33 514.697 3173.99 515.057 3172.27 515.416C3170.56 515.815 3168.38 516.015 3165.74 516.015C3161.75 516.015 3157.84 515.156 3154 513.439C3150.21 511.722 3147.05 509.106 3144.54 505.591C3142.06 502.077 3140.82 497.644 3140.82 492.292V400.754ZM3202.62 514.817V422.8H3216.76V514.817H3202.62ZM3209.81 407.464C3207.06 407.464 3204.68 406.525 3202.68 404.648C3200.73 402.771 3199.75 400.515 3199.75 397.879C3199.75 395.243 3200.73 392.986 3202.68 391.109C3204.68 389.232 3207.06 388.294 3209.81 388.294C3212.57 388.294 3214.93 389.232 3216.88 391.109C3218.88 392.986 3219.88 395.243 3219.88 397.879C3219.88 400.515 3218.88 402.771 3216.88 404.648C3214.93 406.525 3212.57 407.464 3209.81 407.464ZM3286.79 516.734C3278.48 516.734 3271.19 514.757 3264.92 510.803C3258.69 506.849 3253.82 501.318 3250.3 494.209C3246.83 487.1 3245.09 478.793 3245.09 469.288C3245.09 459.703 3246.83 451.336 3250.3 444.187C3253.82 437.038 3258.69 431.487 3264.92 427.533C3271.19 423.579 3278.48 421.602 3286.79 421.602C3295.09 421.602 3302.36 423.579 3308.59 427.533C3314.86 431.487 3319.74 437.038 3323.21 444.187C3326.72 451.336 3328.48 459.703 3328.48 469.288C3328.48 478.793 3326.72 487.1 3323.21 494.209C3319.74 501.318 3314.86 506.849 3308.59 510.803C3302.36 514.757 3295.09 516.734 3286.79 516.734ZM3286.79 504.034C3293.1 504.034 3298.29 502.416 3302.36 499.181C3306.44 495.946 3309.45 491.693 3311.41 486.421C3313.37 481.149 3314.34 475.438 3314.34 469.288C3314.34 463.137 3313.37 457.406 3311.41 452.094C3309.45 446.783 3306.44 442.489 3302.36 439.214C3298.29 435.94 3293.1 434.302 3286.79 434.302C3280.48 434.302 3275.28 435.94 3271.21 439.214C3267.14 442.489 3264.12 446.783 3262.17 452.094C3260.21 457.406 3259.23 463.137 3259.23 469.288C3259.23 475.438 3260.21 481.149 3262.17 486.421C3264.12 491.693 3267.14 495.946 3271.21 499.181C3275.28 502.416 3280.48 504.034 3286.79 504.034ZM3370.95 459.463V514.817H3356.81V422.8H3370.47V437.178H3371.67C3373.82 432.505 3377.1 428.751 3381.49 425.915C3385.89 423.04 3391.56 421.602 3398.51 421.602C3404.74 421.602 3410.19 422.88 3414.86 425.436C3419.53 427.952 3423.17 431.786 3425.76 436.938C3428.36 442.05 3429.66 448.52 3429.66 456.348V514.817H3415.52V457.306C3415.52 450.078 3413.64 444.446 3409.89 440.413C3406.13 436.339 3400.98 434.302 3394.43 434.302C3389.92 434.302 3385.89 435.281 3382.33 437.238C3378.82 439.195 3376.04 442.05 3374 445.804C3371.97 449.558 3370.95 454.111 3370.95 459.463Z" fill="white"/>
</svg>
