<svg width="3444" height="556" viewBox="0 0 3444 556" fill="none" xmlns="http://www.w3.org/2000/svg">
<path d="M842.079 132.041C834.986 134.091 829.627 138.662 826.002 145.282C822.534 151.587 822.534 153.005 822.534 211.641V271.537H834.356H846.177L846.65 214.951C846.808 175.072 847.596 157.734 848.857 156.158C849.803 154.897 852.797 154.109 855.477 154.424C861.467 155.054 861.782 155.685 887.317 213.217C897.247 235.757 906.704 256.721 908.281 259.715C917.265 276.581 945.164 280.837 959.508 267.754C968.177 259.873 968.335 258.612 968.335 195.563C968.335 163.723 968.335 136.612 968.335 135.509C968.335 134.248 964.867 133.618 956.513 133.618H944.691V190.046C944.691 242.85 944.534 246.79 941.854 249.155C933.815 256.405 929.875 251.519 913.167 214.005C884.164 149.065 881.8 144.178 878.017 140.08C870.451 132.041 854.216 128.258 842.079 132.041Z" fill="black"/>
<path d="M1302.97 132.199C1292.88 135.036 1289.25 142.129 1263.72 207.7C1250.32 241.904 1239.44 270.591 1239.44 271.222C1239.44 271.852 1245.28 272.325 1252.37 272.01L1265.45 271.537L1286.73 216.684C1298.55 186.421 1309.11 160.413 1310.06 158.679C1312.11 155.527 1316.05 154.896 1319.52 157.103C1320.62 157.734 1330.87 183.111 1342.21 213.374C1353.41 243.638 1363.49 269.33 1364.28 270.276C1366.17 272.64 1388.56 273.113 1389.97 270.749C1390.45 269.961 1390.13 268.069 1389.34 266.493C1387.14 262.08 1367.91 211.64 1351.36 166.718C1341.74 140.553 1337.96 134.878 1327.87 132.041C1320.94 130.15 1309.74 130.15 1302.97 132.199Z" fill="black"/>
<path d="M528.884 185.948L529.357 238.437L534.085 247.894C539.287 258.139 548.114 266.178 558.202 269.331C561.669 270.434 578.062 271.537 599.183 271.853L634.333 272.641L633.86 260.188L633.387 247.894L600.287 247.106C566.24 246.318 563.718 245.845 557.729 239.225C554.734 235.915 554.576 232.762 553.788 185.003L553 134.406L540.706 133.933L528.411 133.46L528.884 185.948Z" fill="black"/>
<path d="M712.198 135.509C711.726 136.613 711.568 167.664 711.726 204.548L712.198 271.537L723.705 272.01L735.054 272.483V202.971V133.618H724.02C716.612 133.618 712.671 134.248 712.198 135.509Z" fill="black"/>
<path d="M1080.4 135.352C1063.85 138.662 1052.5 150.799 1050.77 167.034C1049.51 179.486 1052.5 187.84 1060.86 196.194C1067.48 202.814 1067.79 203.602 1065.11 205.021C1055.97 210.065 1050.3 221.413 1050.3 234.811C1050.3 249.943 1056.92 260.504 1070.32 267.124L1079.46 271.537L1121.86 272.01C1148.65 272.325 1164.57 272.01 1165.2 271.064C1165.68 270.119 1165.84 264.602 1165.36 258.612L1164.57 247.894L1125.17 247.106C1083.08 246.318 1079.77 245.687 1077.09 238.279C1075.04 233.078 1075.04 225.669 1077.09 221.729C1080.88 214.793 1085.76 214.005 1125.96 214.005C1146.76 214.005 1163.79 213.532 1163.79 212.744C1164.57 201.238 1164.26 193.041 1163.31 192.411C1162.68 192.096 1147.08 191.78 1128.64 191.78C1092.86 191.938 1084.82 190.992 1079.62 185.633C1074.57 180.589 1075.04 169.713 1080.72 164.039L1084.97 159.626L1124.85 158.837L1164.57 158.049V146.228V134.406L1125.96 134.248C1104.68 134.091 1084.19 134.564 1080.4 135.352Z" fill="black"/>
<path d="M1507.88 135.351C1482.03 140.395 1466.58 158.68 1462.8 188.785C1459.49 215.896 1465.16 240.328 1478.4 254.829C1490.54 268.385 1507.56 273.113 1539.4 272.01C1561.62 271.222 1569.66 268.542 1577.86 259.243C1590.63 244.741 1590.94 214.163 1578.65 200.922C1570.14 191.78 1564.93 190.362 1540.5 190.362H1518.44V200.607V210.853H1534.83C1543.66 210.853 1553.27 211.641 1556.11 212.586C1568.4 216.842 1569.03 239.697 1557.05 245.214C1554.53 246.318 1545.07 247.106 1532.15 247.106C1508.19 247.106 1501.26 244.899 1494.16 235.599C1482.34 220.152 1483.44 182.165 1496.21 167.664C1502.67 160.413 1506.46 159.625 1543.66 158.837L1579.12 158.049L1579.59 145.755L1580.07 133.618L1547.28 133.775C1529.31 133.933 1511.5 134.563 1507.88 135.351Z" fill="black"/>
<path d="M1692.29 135.824C1680.47 138.662 1672.43 144.651 1668.18 153.32C1660.45 169.398 1662.66 185.002 1674.32 196.351C1680.94 202.814 1681.26 203.444 1678.26 205.021C1669.12 210.064 1663.45 221.413 1663.45 234.811C1663.45 249.943 1670.07 260.504 1683.47 267.124L1692.61 271.537H1735.17H1777.72V259.715V247.894L1738.32 247.106C1716.72 246.633 1697.65 245.687 1696.08 244.899C1689.93 241.904 1686.62 228.664 1690.24 221.886C1693.71 215.424 1697.49 214.793 1738.32 214.005L1777.72 213.217V202.971V192.726L1739.11 191.938C1705.22 191.307 1699.86 190.835 1696.08 188.313C1687.56 182.796 1686.78 170.659 1694.34 163.408C1698.28 159.625 1698.76 159.625 1738 158.837L1777.72 158.049V146.227V134.406L1739.11 134.091C1712.31 133.933 1697.97 134.406 1692.29 135.824Z" fill="black"/>
<path d="M1920.69 145.755L1921.16 158.049L1960.72 158.837C1996.82 159.625 2000.76 159.941 2003.75 162.62C2011.16 169.398 2010.85 183.111 2002.97 190.519C1999.03 194.302 1998.24 194.302 1964.19 195.09L1929.51 195.878L1924.94 201.08L1920.37 206.124V239.382V272.483L1931.88 272.01L1943.23 271.537L1944.02 245.53L1944.8 219.522L1973.18 218.734C1998.4 217.946 2002.49 217.473 2009.9 214.163C2014.47 212.114 2020.62 207.7 2023.46 204.232C2038.43 186.736 2036.38 155.37 2019.2 142.917C2007.85 134.721 2000.92 133.618 1958.67 133.618H1920.21L1920.69 145.755Z" fill="black"/>
<path d="M2112.99 145.755L2113.46 158.049L2155.54 158.837L2197.79 159.625L2202.04 164.039C2205.67 167.664 2206.46 169.713 2206.46 176.176C2206.46 182.954 2205.67 184.687 2201.26 189.101L2196.21 194.302L2159.33 195.09C2109.99 196.194 2112.36 193.83 2112.99 240.801L2113.46 271.537H2124.49H2135.53L2136.31 245.53L2137.1 219.522L2156.49 219.049L2175.72 218.576L2179.35 224.408C2181.24 227.718 2188.17 239.54 2194.79 250.889L2206.77 271.537L2219.54 272.01C2227.42 272.325 2232.46 271.853 2232.46 270.907C2232.46 269.488 2215.28 238.752 2205.51 222.517L2202.52 217.473L2209.29 213.375C2224.58 204.548 2231.83 190.204 2230.57 171.605C2229.31 155.054 2223.32 145.597 2208.82 138.031C2201.89 134.564 2200.31 134.406 2157.12 133.933L2112.51 133.46L2112.99 145.755Z" fill="black"/>
<path d="M2353.83 135.194C2337.44 138.662 2323.41 149.222 2316.16 163.251C2312.22 170.974 2308.12 190.835 2308.12 202.499C2308.12 241.116 2324.52 265.075 2354.62 270.592C2366.44 272.798 2393.24 272.798 2405.06 270.592C2431.23 265.705 2446.52 247.894 2450.3 217.473C2453.92 189.416 2447.62 164.197 2433.59 150.011C2421.14 137.716 2412.15 134.879 2383.78 134.248C2371.17 133.933 2357.77 134.406 2353.83 135.194ZM2409.16 162.463C2422.87 169.713 2429.02 188.628 2426.02 214.163C2423.98 231.344 2418.77 239.855 2406.95 244.741C2398.13 248.367 2359.98 248.052 2351.47 244.111C2337.6 237.806 2333.19 227.561 2333.03 202.656C2333.03 187.997 2333.5 184.687 2336.97 177.279C2343.9 161.99 2350.68 158.995 2380 158.995C2400.33 158.837 2402.85 159.153 2409.16 162.463Z" fill="black"/>
<path d="M2523.12 135.667C2522.65 136.928 2522.49 142.444 2522.8 147.961L2523.28 158.049L2540.62 158.364C2550.23 158.522 2558.9 158.68 2559.85 158.837C2561.42 158.837 2561.89 171.762 2562.21 215.108L2562.68 271.537H2574.5H2586.33L2587.11 215.108L2587.9 158.522L2606.82 158.364L2625.73 158.049V146.227V134.406L2574.82 133.933C2532.89 133.618 2523.91 133.933 2523.12 135.667Z" fill="black"/>
<path d="M2745.37 135.194C2715.42 141.499 2700.13 164.354 2700.13 202.971C2699.97 237.018 2711.64 258.612 2735.12 267.912C2743 271.064 2746.79 271.379 2769.96 271.537C2791.08 271.537 2797.54 271.064 2804.63 268.7C2821.03 263.183 2832.06 251.992 2838.68 234.496C2842.15 225.354 2842.78 185.002 2839.63 175.388C2833.32 156.63 2821.03 142.76 2806.05 137.716C2796.44 134.406 2756.56 132.83 2745.37 135.194ZM2799.12 161.832C2812.83 167.979 2817.87 179.17 2817.87 202.971C2817.87 220.31 2815.67 229.137 2809.83 236.23C2802.27 245.214 2795.65 247.106 2770.74 247.106C2743.79 247.106 2737.49 244.899 2729.92 232.447C2725.82 225.984 2725.19 223.147 2724.56 209.592C2723.3 183.111 2728.5 168.767 2741.9 162.147C2747.89 159.31 2751.36 158.837 2770.74 158.837C2788.71 158.837 2793.91 159.468 2799.12 161.832Z" fill="black"/>
<path d="M2965.88 135.194C2954.53 137.558 2943.66 143.232 2937.19 150.168C2924.74 163.566 2920.49 177.279 2920.49 202.971C2920.49 228.191 2924.74 242.062 2936.56 255.144C2943.66 263.025 2953.9 268.384 2966.2 270.591C2978.02 272.798 3034.29 272.956 3035.08 270.749C3035.39 269.961 3035.23 264.444 3034.76 258.612L3033.97 247.894L3000.08 247.105C2969.51 246.317 2965.72 246.002 2960.68 243.007C2949.33 236.387 2944.44 224.093 2944.44 202.971C2944.44 181.85 2949.33 169.555 2960.68 162.935C2965.72 159.94 2969.51 159.625 3000.08 158.837L3033.97 158.049L3034.76 147.331C3035.23 141.499 3035.39 135.982 3035.08 135.194C3034.45 133.302 2975.65 133.302 2965.88 135.194Z" fill="black"/>
<path d="M3162.44 134.564C3132.8 140.238 3117.04 159.783 3114.2 194.775C3110.89 236.072 3128.07 264.76 3160.07 270.592C3171.89 272.798 3198.69 272.798 3210.51 270.592C3234.47 266.178 3249.28 251.046 3254.64 225.669C3261.11 194.933 3254.17 163.566 3237.31 147.961C3226.27 137.716 3215.87 134.879 3189.23 134.248C3176.62 134.091 3164.64 134.248 3162.44 134.564ZM3214.45 162.305C3227.06 168.768 3232.26 180.589 3232.26 202.972C3232.26 225.827 3226.59 238.279 3213.82 244.111C3208.46 246.475 3203.42 247.106 3185.29 247.106C3165.43 247.106 3162.44 246.791 3156.13 243.481C3143.21 237.018 3138.79 226.615 3138.79 202.656C3138.79 191.15 3139.58 185.16 3141.94 178.855C3148.25 162.147 3155.18 158.995 3185.29 158.837C3205.31 158.837 3208.15 159.153 3214.45 162.305Z" fill="black"/>
<path d="M3338.03 135.825C3337.55 136.928 3337.4 160.886 3337.71 188.943C3338.18 233.393 3338.66 240.801 3341.02 246.002C3345.28 255.145 3353.95 263.656 3363.09 267.754C3370.81 271.222 3373.65 271.537 3407.22 272.01L3443.16 272.641L3442.69 260.188L3442.21 247.894L3409.11 247.106C3359.31 245.845 3361.98 249.47 3361.51 184.057C3361.2 157.576 3361.04 135.509 3361.04 134.721C3361.04 134.091 3356 133.618 3350.01 133.618C3341.97 133.618 3338.66 134.248 3338.03 135.825Z" fill="black"/>
<path d="M1304.54 210.853C1294.45 217 1290.83 227.561 1295.4 237.806C1302.34 252.938 1322.35 254.514 1330.87 240.328C1337.01 230.24 1333.23 216.054 1322.83 210.537C1316.05 206.912 1310.85 206.912 1304.54 210.853Z" fill="black"/>
<path d="M294.384 0.745519C294.262 0.990167 293.191 2.21341 292.029 3.49781C290.867 4.78221 289.491 6.40301 288.971 7.10637C288.451 7.80974 287.656 8.88007 287.197 9.46111C285.577 11.6629 281.937 17.5957 280.378 20.6232C279.491 22.3051 278.482 24.2623 278.115 24.9351C277.778 25.6079 277.473 26.2501 277.473 26.3418C277.473 26.4642 276.983 27.5957 276.402 28.8495C275.821 30.1033 275.332 31.2654 275.332 31.4183C275.332 31.6018 274.904 32.7333 274.415 33.9871C273.895 35.2409 273.344 36.7394 273.222 37.3204C273.069 37.9015 272.671 39.2165 272.335 40.2256C271.479 42.7333 269.674 49.4917 269.063 52.4581C268.788 53.8036 268.329 56.1278 268.023 57.6568C267.687 59.1553 267.289 61.5712 267.106 63.0085C266.922 64.4458 266.586 66.984 266.341 68.666C264.812 79.0635 264.72 105.608 266.127 115.302C266.311 116.403 266.647 118.788 266.892 120.654C267.167 122.489 267.595 125.333 267.84 126.923C268.788 132.764 269.644 141.265 270.5 153.223C271.02 160.409 270.928 174.415 270.317 182.122C269.185 196.189 269.277 195.486 267.993 201.846C267.687 203.437 267.289 205.516 267.136 206.434C266.983 207.351 266.647 208.88 266.402 209.797C266.127 210.715 265.699 212.519 265.393 213.773C265.118 215.027 264.782 216.189 264.659 216.372C264.537 216.525 264.17 217.504 263.895 218.513C263.222 220.745 261.509 225.302 260.531 227.382C256.188 236.617 253.528 240.929 248.665 246.495C246.739 248.727 239.583 255.883 236.8 258.36C234.292 260.593 229.093 264.782 226.708 266.464C226.28 266.77 225.454 267.351 224.873 267.748C224.292 268.177 223.589 268.666 223.344 268.819C223.1 269.002 222.213 269.614 221.356 270.195C220.531 270.776 219.338 271.51 218.757 271.816C218.176 272.091 217.136 272.703 216.464 273.131C215.791 273.559 213.925 274.568 212.335 275.363C210.745 276.158 209.308 276.923 209.124 277.045C208.971 277.167 208.207 277.534 207.442 277.81C206.678 278.115 205.393 278.666 204.537 279.063C203.711 279.43 202.733 279.828 202.427 279.95C202.121 280.073 201.938 280.226 202.029 280.348C202.396 280.684 208.237 279.767 211.571 278.849C213.436 278.33 215.485 277.779 216.158 277.657C217.289 277.443 218.635 276.984 225.179 274.446C227.656 273.467 234.751 270.011 237.748 268.268C241.326 266.189 243.467 264.843 243.834 264.415C244.048 264.14 244.323 263.926 244.476 263.926C244.843 263.926 249.766 260.44 251.479 258.972C252.243 258.33 253.252 257.473 253.742 257.106C254.843 256.25 263.375 247.81 264.139 246.8C268.268 241.296 270.286 238.391 271.693 235.944C273.619 232.519 274.476 230.96 274.934 229.981C275.179 229.4 275.882 227.932 276.433 226.77C277.014 225.577 277.473 224.507 277.473 224.385C277.473 224.232 277.901 223.223 278.39 222.122C278.91 221.051 279.308 220.012 279.308 219.859C279.308 219.675 279.644 218.697 280.041 217.657C280.928 215.363 282.457 210.103 283.436 205.975C283.834 204.293 284.292 202.366 284.476 201.693C284.659 201.021 285.026 199.094 285.301 197.412C285.577 195.73 285.913 193.742 286.035 192.978C288.635 177.993 288.635 150.654 286.035 134.109C285.882 133.253 285.577 131.051 285.332 129.216C285.057 127.351 284.506 124.201 284.048 122.183C283.619 120.195 283.161 117.565 283.008 116.372C282.855 115.21 282.457 112.642 282.121 110.715C281.785 108.788 281.418 106.036 281.295 104.599C281.204 103.161 280.837 99.7363 280.531 96.9535C279.705 89.9198 279.308 81.6324 279.308 72.3357C279.308 64.507 279.919 53.5896 280.531 50.0116C280.684 49.0024 280.959 46.7394 281.142 44.9657C281.723 39.1859 285.301 22.8556 286.341 21.2654C286.463 21.0819 286.8 20.1339 287.075 19.1247C287.381 18.1155 287.931 16.4642 288.36 15.455C288.757 14.4458 289.093 13.4978 289.093 13.3755C289.093 12.825 293.558 3.65072 294.537 2.24399C295.24 1.17365 295.424 0.317385 294.904 0.317385C294.751 0.317385 294.506 0.500871 294.384 0.745519Z" fill="black"/>
<path d="M399.796 108.971C399.368 109.216 398.757 109.552 398.42 109.736C397.411 110.317 392.182 112.549 391.845 112.549C391.693 112.549 390.836 112.885 389.949 113.283C388.115 114.109 382.916 115.791 380.286 116.372C379.338 116.586 377.105 117.106 375.332 117.534C365.24 119.95 354.904 121.081 340.408 121.326C328.849 121.54 314.659 120.653 302.09 118.971C295.943 118.145 291.601 117.503 289.858 117.136C289.032 116.983 287.717 116.769 286.983 116.647L285.668 116.433L285.882 117.473C286.005 118.054 286.433 119.919 286.83 121.601C287.228 123.314 287.564 125.24 287.595 125.882C287.595 126.555 287.901 128.726 288.298 130.714C289.063 134.873 288.849 134.659 292.702 135.179C296.31 135.668 312.885 136.677 317.534 136.708C322.274 136.708 336.096 135.943 339.705 135.454C341.05 135.271 343.925 134.812 346.096 134.384C348.237 133.986 350.347 133.65 350.775 133.65C351.173 133.65 352.702 133.314 354.17 132.916C355.637 132.518 357.381 132.09 358.053 131.968C360.653 131.54 369.888 128.451 373.741 126.739C374.628 126.341 375.485 126.005 375.637 126.005C375.882 126.005 378.787 124.537 383.13 122.182C384.781 121.295 387.228 119.827 389.796 118.206C391.662 117.044 396.585 113.191 398.267 111.632C399.185 110.775 400.255 109.858 400.622 109.583C401.02 109.338 401.234 109.002 401.142 108.849C400.928 108.482 400.714 108.512 399.796 108.971Z" fill="black"/>
<path d="M197.809 111.235C191.387 111.693 183.681 113.253 177.442 115.332C176.005 115.822 174.659 116.219 174.476 116.219C174.292 116.219 173.253 116.617 172.182 117.137C171.081 117.626 170.103 118.054 169.98 118.054C169.858 118.054 168.788 118.543 167.656 119.124C166.494 119.706 165.424 120.195 165.271 120.195C164.996 120.195 161.785 121.907 158.36 123.834C156.127 125.118 150.439 128.788 148.574 130.134C147.565 130.868 146.402 131.724 145.974 132.03C144.843 132.825 139.889 136.831 138.482 138.085C136.311 140.042 131.907 144.476 131.907 144.69C131.907 144.813 131.54 145.363 131.081 145.883C130.592 146.433 129.858 147.32 129.43 147.84C128.635 148.757 125.699 153.1 124.201 155.516C122.213 158.696 118.788 165.394 117.809 167.901C117.106 169.797 115.577 173.803 114.843 175.852C113.681 179.002 112.274 183.65 111.999 185.18C111.846 186.005 111.51 187.473 111.234 188.391C110.959 189.308 110.562 191.112 110.317 192.366C110.103 193.62 109.705 195.975 109.399 197.565C109.124 199.155 108.788 200.868 108.635 201.357C108.482 201.846 108.36 203.1 108.36 204.109C108.36 205.149 108.237 207.076 108.054 208.421C107.565 212.427 106.831 224.598 106.831 228.88C106.831 233.498 107.259 240.99 107.901 248.482C108.146 251.326 108.39 254.231 108.421 254.904C108.513 256.097 108.513 256.127 110.042 256.342C110.898 256.494 112.672 256.8 114.017 257.076C118.146 257.932 128.421 259.277 128.666 259.002C128.757 258.91 128.635 256.861 128.39 254.446C127.136 241.724 126.769 221.173 127.565 209.95C127.932 204.69 128.818 197.32 129.461 194.048C129.644 193.192 129.919 191.571 130.072 190.378C130.256 189.216 130.653 187.259 130.99 186.036C131.326 184.813 131.601 183.528 131.601 183.192C131.601 182.611 132.916 178.085 133.436 176.923C133.589 176.586 133.773 175.883 133.895 175.394C134.262 173.62 136.892 167.198 139.308 162.244C140.347 160.072 141.051 158.88 143.375 155.088C145.852 151.112 148.757 147.657 154.537 141.907C158.513 137.932 160.5 136.097 164.017 133.131C165.026 132.244 170.103 128.36 171.876 127.076C176.8 123.528 186.984 117.84 191.693 116.005C192.366 115.73 193.62 115.21 194.506 114.813C195.363 114.415 196.28 114.079 196.555 114.079C196.8 114.079 197.656 113.773 198.482 113.436C199.277 113.069 200.898 112.55 202.06 112.274C205.149 111.54 205.057 111.021 201.876 111.082C200.5 111.112 198.665 111.173 197.809 111.235Z" fill="black"/>
<path d="M240.47 114.415C238.36 114.537 235.76 114.782 234.659 114.935C233.558 115.118 231.081 115.485 229.155 115.73C225.363 116.28 222.58 116.739 220.898 117.137C220.317 117.29 218.329 117.748 216.464 118.146C214.629 118.574 212.335 119.155 211.418 119.43C210.5 119.706 209.399 120.011 208.971 120.103C207.595 120.378 201.54 122.335 199.033 123.314C192.794 125.699 185.913 129.033 182.366 131.326C181.785 131.724 180.99 132.121 180.653 132.244C180.286 132.366 179.766 132.702 179.461 133.039C179.155 133.375 178.788 133.65 178.604 133.65C177.32 133.65 162.244 146.342 162.825 146.923C162.947 147.045 164.507 146.372 166.341 145.455C169.95 143.62 173.65 141.907 173.987 141.907C174.078 141.907 175.363 141.449 176.831 140.868C178.268 140.317 180.225 139.614 181.143 139.308C182.06 139.002 182.977 138.666 183.13 138.543C183.314 138.421 184.201 138.146 185.118 137.932C186.036 137.718 187.779 137.228 188.941 136.861C190.133 136.464 191.632 136.036 192.305 135.944C192.977 135.822 195.179 135.332 197.198 134.813C199.216 134.323 201.815 133.803 203.008 133.65C204.17 133.498 206.678 133.131 208.513 132.764C210.378 132.427 216.066 131.785 221.204 131.326C229.797 130.531 231.571 130.47 243.681 130.501C252.58 130.531 258.115 130.684 260.806 130.99C263.008 131.204 264.965 131.357 265.21 131.265C265.485 131.143 265.577 130.776 265.454 129.858C265.118 127.504 264.659 124.935 264.14 122.641C263.864 121.387 263.558 118.972 263.436 117.29L263.253 114.232L253.773 114.201C248.574 114.17 242.58 114.262 240.47 114.415Z" fill="black"/>
<path d="M239.705 247.106C238.604 247.84 233.283 250.47 232.886 250.47C232.733 250.47 232.182 250.684 231.662 250.959C230.072 251.754 224.812 253.865 223.344 254.293C222.58 254.507 220.959 255.057 219.705 255.516C218.451 255.944 216.892 256.433 216.188 256.586C215.485 256.709 213.987 257.106 212.794 257.443C209.094 258.513 201.479 260.256 200.531 260.256C200.042 260.256 197.993 260.592 195.974 260.99C191.601 261.846 188.513 262.213 180.378 262.855C177.014 263.131 172.825 263.467 171.051 263.62C169.277 263.803 164.048 263.926 159.43 263.926C151.357 263.926 149.338 263.834 137.412 262.855C134.476 262.611 130.898 262.336 129.461 262.244C127.167 262.091 123.65 261.449 120.256 260.531C119.644 260.378 118.666 260.256 118.085 260.256C117.075 260.256 112.794 259.706 108.818 259.033C103.864 258.207 91.5402 257.779 80.2252 257.962C71.1732 258.146 68.6044 258.36 61.265 259.522C58.6656 259.92 56.158 260.256 55.7298 260.256C55.3017 260.256 53.0081 260.745 50.684 261.326C48.3598 261.907 46.158 262.397 45.8522 262.397C45.5158 262.397 44.1396 262.733 42.7941 263.161C41.4179 263.559 39.4301 264.17 38.3292 264.507C31.3262 266.678 23.8338 269.858 17.5341 273.345C16.1274 274.109 9.55248 278.391 8.69621 279.094C6.12741 281.143 2.21304 284.537 1.47909 285.332C0.56166 286.311 0.56166 286.311 1.32619 286.128C1.75432 286.005 3.0693 285.455 4.23138 284.874C7.5953 283.222 10.5311 281.969 10.9898 281.969C11.2039 281.969 12.3048 281.54 13.4363 281.021C14.5678 280.531 15.9133 280.011 16.4332 279.95C16.9531 279.858 18.2681 279.461 19.369 279.063C20.4699 278.666 22.1213 278.176 23.0387 277.993C23.9561 277.779 26.0357 277.29 27.6259 276.892C29.2161 276.495 32.3965 275.883 34.6595 275.547C36.9225 275.18 40.0418 274.69 41.5402 274.476C51.6626 272.886 80.0112 272.886 93.2222 274.446C101.601 275.455 102.855 275.608 105.913 276.005C107.687 276.25 110.439 276.709 112.029 277.045C113.62 277.412 115.332 277.687 115.822 277.687C116.28 277.687 118.085 278.024 119.797 278.421C121.479 278.849 123.926 279.308 125.179 279.491C132.733 280.531 160.133 280.562 166.922 279.522C167.932 279.369 171.112 278.88 173.956 278.452C176.831 278.024 180.409 277.381 181.907 277.045C183.436 276.709 185.638 276.219 186.8 275.975C191.662 274.935 200.714 272.091 206.219 269.858C208.146 269.094 210.164 268.299 210.653 268.085C211.173 267.901 212.06 267.473 212.641 267.137C213.222 266.8 214.323 266.25 215.088 265.913C215.852 265.608 216.953 265.027 217.534 264.629C218.115 264.232 218.696 263.926 218.849 263.926C218.971 263.926 220.225 263.222 221.601 262.397C222.977 261.54 224.384 260.684 224.721 260.47C225.393 260.073 229.43 257.228 229.919 256.831C230.072 256.678 231.051 255.944 232.06 255.18C234.629 253.253 241.02 247.351 241.051 246.861C241.081 246.342 240.776 246.403 239.705 247.106Z" fill="black"/>
<path d="M112.794 280.745C112.702 280.898 112.824 282.182 113.069 283.559C113.834 287.932 114.17 290.562 114.476 294.812C114.659 297.075 114.996 301.357 115.24 304.292C115.852 311.54 115.852 330.286 115.24 336.708C114.415 345.638 113.864 350.317 113.467 352.458C113.222 353.62 112.794 355.974 112.519 357.656C111.937 360.99 110.317 367.289 109.124 370.99C108.696 372.274 108.359 373.558 108.359 373.834C108.359 374.078 108.023 375.026 107.626 375.913C107.197 376.8 106.647 378.207 106.372 379.063C106.097 379.889 105.546 381.204 105.118 381.938C104.72 382.672 104.384 383.406 104.384 383.558C104.384 384.629 99.0934 394.078 96.3412 397.901C94.8427 400.042 94.6898 400.317 95.2402 400.317C95.699 400.317 101.081 395.607 103.65 392.916C106.097 390.409 109.889 385.821 109.889 385.393C109.889 385.24 110.103 384.904 110.378 384.69C111.601 383.681 116.066 376.311 118.512 371.265C121.234 365.607 121.723 364.507 122.152 363.161C122.335 362.488 122.824 361.234 123.191 360.409C124.292 357.962 127.595 347.075 127.931 344.812C128.145 343.497 128.696 341.051 129.766 336.984C129.95 336.372 130.072 335.455 130.072 334.935C130.072 334.415 130.408 331.999 130.837 329.552C131.265 327.106 131.601 324.384 131.601 323.497C131.601 322.61 131.815 320.072 132.06 317.901C132.733 312.091 132.977 298.085 132.549 289.919C132.335 286.127 132.029 282.886 131.876 282.702C131.723 282.488 129.736 282.274 126.953 282.152C122.182 281.938 119.277 281.632 115.638 280.867C113.191 280.348 113.038 280.348 112.794 280.745Z" fill="black"/>
<path d="M2211.72 516.734C2204.05 516.734 2197.28 514.797 2191.41 510.923C2185.54 507.009 2180.94 501.498 2177.63 494.389C2174.31 487.24 2172.66 478.793 2172.66 469.048C2172.66 459.383 2174.31 450.996 2177.63 443.887C2180.94 436.778 2185.56 431.287 2191.47 427.413C2197.38 423.539 2204.21 421.602 2211.96 421.602C2217.95 421.602 2222.68 422.6 2226.15 424.597C2229.67 426.554 2232.34 428.791 2234.18 431.307C2236.06 433.783 2237.52 435.82 2238.55 437.417H2239.75V392.128H2253.89V514.817H2240.23V500.679H2238.55C2237.52 502.356 2236.04 504.473 2234.12 507.029C2232.2 509.545 2229.47 511.802 2225.91 513.798C2222.36 515.755 2217.63 516.734 2211.72 516.734ZM2213.63 504.034C2219.3 504.034 2224.1 502.556 2228.01 499.601C2231.92 496.605 2234.9 492.472 2236.94 487.2C2238.97 481.888 2239.99 475.758 2239.99 468.808C2239.99 461.939 2238.99 455.928 2237 450.777C2235 445.585 2232.04 441.551 2228.13 438.675C2224.22 435.76 2219.38 434.302 2213.63 434.302C2207.64 434.302 2202.65 435.84 2198.66 438.915C2194.7 441.95 2191.73 446.084 2189.73 451.316C2187.77 456.508 2186.79 462.339 2186.79 468.808C2186.79 475.358 2187.79 481.309 2189.79 486.661C2191.83 491.972 2194.82 496.206 2198.78 499.361C2202.77 502.476 2207.72 504.034 2213.63 504.034ZM2325.88 516.734C2317.57 516.734 2310.28 514.757 2304.01 510.803C2297.78 506.849 2292.91 501.318 2289.39 494.209C2285.92 487.1 2284.18 478.793 2284.18 469.288C2284.18 459.703 2285.92 451.336 2289.39 444.187C2292.91 437.038 2297.78 431.487 2304.01 427.533C2310.28 423.579 2317.57 421.602 2325.88 421.602C2334.18 421.602 2341.45 423.579 2347.68 427.533C2353.95 431.487 2358.83 437.038 2362.3 444.187C2365.81 451.336 2367.57 459.703 2367.57 469.288C2367.57 478.793 2365.81 487.1 2362.3 494.209C2358.83 501.318 2353.95 506.849 2347.68 510.803C2341.45 514.757 2334.18 516.734 2325.88 516.734ZM2325.88 504.034C2332.19 504.034 2337.38 502.416 2341.45 499.181C2345.53 495.946 2348.54 491.693 2350.5 486.421C2352.46 481.149 2353.43 475.438 2353.43 469.288C2353.43 463.137 2352.46 457.406 2350.5 452.094C2348.54 446.783 2345.53 442.489 2341.45 439.214C2337.38 435.94 2332.19 434.302 2325.88 434.302C2319.57 434.302 2314.37 435.94 2310.3 439.214C2306.23 442.489 2303.21 446.783 2301.25 452.094C2299.3 457.406 2298.32 463.137 2298.32 469.288C2298.32 475.438 2299.3 481.149 2301.25 486.421C2303.21 491.693 2306.23 495.946 2310.3 499.181C2314.37 502.416 2319.57 504.034 2325.88 504.034ZM2433.28 516.734C2424.66 516.734 2417.23 514.697 2411 510.623C2404.77 506.55 2399.97 500.938 2396.62 493.79C2393.27 486.641 2391.59 478.473 2391.59 469.288C2391.59 459.942 2393.3 451.695 2396.74 444.546C2400.21 437.357 2405.05 431.746 2411.24 427.712C2417.47 423.639 2424.74 421.602 2433.04 421.602C2439.51 421.602 2445.34 422.8 2450.54 425.196C2455.73 427.593 2459.98 430.947 2463.3 435.261C2466.61 439.574 2468.67 444.606 2469.47 450.357H2455.33C2454.25 446.164 2451.85 442.449 2448.14 439.214C2444.47 435.94 2439.51 434.302 2433.28 434.302C2427.77 434.302 2422.94 435.74 2418.79 438.615C2414.67 441.451 2411.46 445.465 2409.14 450.657C2406.86 455.809 2405.73 461.859 2405.73 468.808C2405.73 475.917 2406.84 482.108 2409.08 487.38C2411.36 492.651 2414.55 496.745 2418.67 499.66C2422.82 502.576 2427.69 504.034 2433.28 504.034C2436.96 504.034 2440.29 503.395 2443.29 502.117C2446.28 500.839 2448.82 499.001 2450.9 496.605C2452.97 494.209 2454.45 491.333 2455.33 487.979H2469.47C2468.67 493.41 2466.69 498.303 2463.54 502.656C2460.42 506.969 2456.29 510.404 2451.13 512.96C2446.02 515.476 2440.07 516.734 2433.28 516.734ZM2554.87 477.195V422.8H2569.01V514.817H2554.87V499.241H2553.91C2551.76 503.914 2548.4 507.888 2543.85 511.163C2539.3 514.398 2533.55 516.015 2526.6 516.015C2520.84 516.015 2515.73 514.757 2511.26 512.241C2506.79 509.685 2503.27 505.851 2500.72 500.739C2498.16 495.587 2496.88 489.097 2496.88 481.269V422.8H2511.02V480.311C2511.02 487.02 2512.9 492.372 2516.65 496.366C2520.45 500.359 2525.28 502.356 2531.15 502.356C2534.66 502.356 2538.24 501.458 2541.87 499.66C2545.55 497.863 2548.62 495.108 2551.1 491.393C2553.61 487.679 2554.87 482.946 2554.87 477.195ZM2601.65 514.817V422.8H2615.31V437.178H2616.51C2618.43 432.265 2621.52 428.451 2625.8 425.735C2630.07 422.98 2635.2 421.602 2641.19 421.602C2647.26 421.602 2652.31 422.98 2656.35 425.735C2660.42 428.451 2663.6 432.265 2665.87 437.178H2666.83C2669.19 432.425 2672.72 428.651 2677.43 425.855C2682.15 423.02 2687.8 421.602 2694.39 421.602C2702.62 421.602 2709.35 424.178 2714.58 429.33C2719.81 434.442 2722.42 442.41 2722.42 453.233V514.817H2708.29V453.233C2708.29 446.443 2706.43 441.591 2702.72 438.675C2699 435.76 2694.63 434.302 2689.6 434.302C2683.13 434.302 2678.11 436.259 2674.56 440.173C2671 444.047 2669.23 448.959 2669.23 454.91V514.817H2654.85V451.795C2654.85 446.563 2653.15 442.35 2649.76 439.155C2646.36 435.92 2641.99 434.302 2636.64 434.302C2632.96 434.302 2629.53 435.281 2626.33 437.238C2623.18 439.195 2620.62 441.91 2618.67 445.385C2616.75 448.82 2615.79 452.793 2615.79 457.306V514.817H2601.65ZM2793.6 516.734C2784.74 516.734 2777.09 514.777 2770.66 510.863C2764.27 506.909 2759.34 501.398 2755.86 494.329C2752.43 487.22 2750.71 478.953 2750.71 469.527C2750.71 460.102 2752.43 451.795 2755.86 444.606C2759.34 437.377 2764.17 431.746 2770.36 427.712C2776.59 423.639 2783.86 421.602 2792.16 421.602C2796.96 421.602 2801.69 422.401 2806.36 423.998C2811.04 425.596 2815.29 428.192 2819.12 431.786C2822.96 435.341 2826.01 440.053 2828.29 445.924C2830.56 451.795 2831.7 459.024 2831.7 467.61V473.601H2760.77V461.38H2817.33C2817.33 456.188 2816.29 451.555 2814.21 447.482C2812.17 443.408 2809.26 440.193 2805.46 437.837C2801.71 435.48 2797.28 434.302 2792.16 434.302C2786.53 434.302 2781.66 435.7 2777.55 438.496C2773.47 441.251 2770.34 444.846 2768.14 449.279C2765.95 453.712 2764.85 458.465 2764.85 463.537V471.684C2764.85 478.633 2766.05 484.524 2768.44 489.356C2770.88 494.149 2774.25 497.803 2778.57 500.319C2782.88 502.796 2787.89 504.034 2793.6 504.034C2797.32 504.034 2800.67 503.514 2803.67 502.476C2806.7 501.398 2809.32 499.8 2811.51 497.684C2813.71 495.527 2815.41 492.851 2816.61 489.656L2830.27 493.49C2828.83 498.123 2826.41 502.197 2823.02 505.711C2819.62 509.186 2815.43 511.901 2810.44 513.858C2805.44 515.775 2799.83 516.734 2793.6 516.734ZM2874.1 459.463V514.817H2859.96V422.8H2873.62V437.178H2874.81C2876.97 432.505 2880.25 428.751 2884.64 425.915C2889.03 423.04 2894.7 421.602 2901.65 421.602C2907.88 421.602 2913.33 422.88 2918.01 425.436C2922.68 427.952 2926.31 431.786 2928.91 436.938C2931.51 442.05 2932.8 448.52 2932.8 456.348V514.817H2918.67V457.306C2918.67 450.078 2916.79 444.446 2913.04 440.413C2909.28 436.339 2904.13 434.302 2897.58 434.302C2893.07 434.302 2889.03 435.281 2885.48 437.238C2881.96 439.195 2879.19 442.05 2877.15 445.804C2875.11 449.558 2874.1 454.111 2874.1 459.463ZM3005.4 422.8V434.781H2957.72V422.8H3005.4ZM2971.62 400.754H2985.76V488.458C2985.76 492.452 2986.33 495.447 2987.49 497.444C2988.69 499.401 2990.21 500.719 2992.05 501.398C2993.92 502.037 2995.9 502.356 2997.98 502.356C2999.53 502.356 3000.81 502.276 3001.81 502.117C3002.81 501.917 3003.61 501.757 3004.21 501.637L3007.08 514.338C3006.12 514.697 3004.79 515.057 3003.07 515.416C3001.35 515.815 2999.17 516.015 2996.54 516.015C2992.54 516.015 2988.63 515.156 2984.8 513.439C2981 511.722 2977.85 509.106 2975.33 505.591C2972.86 502.077 2971.62 497.644 2971.62 492.292V400.754ZM3060.5 516.974C3054.67 516.974 3049.37 515.875 3044.62 513.679C3039.87 511.442 3036.1 508.227 3033.3 504.034C3030.5 499.8 3029.11 494.688 3029.11 488.698C3029.11 483.426 3030.14 479.152 3032.22 475.877C3034.3 472.563 3037.07 469.967 3040.55 468.09C3044.02 466.212 3047.86 464.815 3052.05 463.896C3056.28 462.938 3060.54 462.179 3064.81 461.62C3070.4 460.901 3074.94 460.362 3078.41 460.002C3081.92 459.603 3084.48 458.944 3086.08 458.025C3087.72 457.107 3088.53 455.509 3088.53 453.233V452.753C3088.53 446.843 3086.92 442.25 3083.68 438.975C3080.49 435.7 3075.63 434.063 3069.12 434.063C3062.37 434.063 3057.08 435.54 3053.25 438.496C3049.41 441.451 3046.72 444.606 3045.16 447.961L3031.74 443.168C3034.14 437.577 3037.33 433.224 3041.33 430.109C3045.36 426.954 3049.75 424.757 3054.51 423.519C3059.3 422.241 3064.01 421.602 3068.64 421.602C3071.6 421.602 3074.99 421.961 3078.83 422.68C3082.7 423.359 3086.44 424.777 3090.03 426.934C3093.67 429.09 3096.68 432.345 3099.08 436.698C3101.47 441.052 3102.67 446.883 3102.67 454.191V514.817H3088.53V502.356H3087.81C3086.86 504.353 3085.26 506.49 3083.02 508.766C3080.79 511.043 3077.81 512.98 3074.1 514.577C3070.38 516.175 3065.85 516.974 3060.5 516.974ZM3062.65 504.273C3068.25 504.273 3072.96 503.175 3076.79 500.978C3080.67 498.782 3083.58 495.946 3085.54 492.472C3087.54 488.997 3088.53 485.343 3088.53 481.509V468.569C3087.93 469.288 3086.62 469.947 3084.58 470.546C3082.58 471.105 3080.27 471.604 3077.63 472.043C3075.03 472.443 3072.5 472.802 3070.02 473.122C3067.59 473.401 3065.61 473.641 3064.09 473.841C3060.42 474.32 3056.98 475.099 3053.79 476.177C3050.63 477.215 3048.08 478.793 3046.12 480.91C3044.2 482.986 3043.24 485.822 3043.24 489.416C3043.24 494.329 3045.06 498.043 3048.7 500.559C3052.37 503.035 3057.02 504.273 3062.65 504.273ZM3175.24 422.8V434.781H3127.56V422.8H3175.24ZM3141.45 400.754H3155.59V488.458C3155.59 492.452 3156.17 495.447 3157.33 497.444C3158.53 499.401 3160.05 500.719 3161.88 501.398C3163.76 502.037 3165.74 502.356 3167.81 502.356C3169.37 502.356 3170.65 502.276 3171.65 502.117C3172.65 501.917 3173.45 501.757 3174.04 501.637L3176.92 514.338C3175.96 514.697 3174.62 515.057 3172.91 515.416C3171.19 515.815 3169.01 516.015 3166.38 516.015C3162.38 516.015 3158.47 515.156 3154.63 513.439C3150.84 511.722 3147.69 509.106 3145.17 505.591C3142.69 502.077 3141.45 497.644 3141.45 492.292V400.754ZM3203.26 514.817V422.8H3217.4V514.817H3203.26ZM3210.45 407.464C3207.69 407.464 3205.31 406.525 3203.32 404.648C3201.36 402.771 3200.38 400.515 3200.38 397.879C3200.38 395.243 3201.36 392.986 3203.32 391.109C3205.31 389.232 3207.69 388.294 3210.45 388.294C3213.2 388.294 3215.56 389.232 3217.52 391.109C3219.51 392.986 3220.51 395.243 3220.51 397.879C3220.51 400.515 3219.51 402.771 3217.52 404.648C3215.56 406.525 3213.2 407.464 3210.45 407.464ZM3287.42 516.734C3279.11 516.734 3271.82 514.757 3265.55 510.803C3259.32 506.849 3254.45 501.318 3250.94 494.209C3247.46 487.1 3245.72 478.793 3245.72 469.288C3245.72 459.703 3247.46 451.336 3250.94 444.187C3254.45 437.038 3259.32 431.487 3265.55 427.533C3271.82 423.579 3279.11 421.602 3287.42 421.602C3295.73 421.602 3303 423.579 3309.23 427.533C3315.5 431.487 3320.37 437.038 3323.84 444.187C3327.36 451.336 3329.11 459.703 3329.11 469.288C3329.11 478.793 3327.36 487.1 3323.84 494.209C3320.37 501.318 3315.5 506.849 3309.23 510.803C3303 514.757 3295.73 516.734 3287.42 516.734ZM3287.42 504.034C3293.73 504.034 3298.92 502.416 3303 499.181C3307.07 495.946 3310.08 491.693 3312.04 486.421C3314 481.149 3314.98 475.438 3314.98 469.288C3314.98 463.137 3314 457.406 3312.04 452.094C3310.08 446.783 3307.07 442.489 3303 439.214C3298.92 435.94 3293.73 434.302 3287.42 434.302C3281.11 434.302 3275.92 435.94 3271.84 439.214C3267.77 442.489 3264.76 446.783 3262.8 452.094C3260.84 457.406 3259.86 463.137 3259.86 469.288C3259.86 475.438 3260.84 481.149 3262.8 486.421C3264.76 491.693 3267.77 495.946 3271.84 499.181C3275.92 502.416 3281.11 504.034 3287.42 504.034ZM3371.58 459.463V514.817H3357.44V422.8H3371.1V437.178H3372.3C3374.46 432.505 3377.73 428.751 3382.13 425.915C3386.52 423.04 3392.19 421.602 3399.14 421.602C3405.37 421.602 3410.82 422.88 3415.49 425.436C3420.17 427.952 3423.8 431.786 3426.4 436.938C3428.99 442.05 3430.29 448.52 3430.29 456.348V514.817H3416.15V457.306C3416.15 450.078 3414.28 444.446 3410.52 440.413C3406.77 436.339 3401.62 434.302 3395.07 434.302C3390.55 434.302 3386.52 435.281 3382.96 437.238C3379.45 439.195 3376.67 442.05 3374.64 445.804C3372.6 449.558 3371.58 454.111 3371.58 459.463Z" fill="black"/>
</svg>
